<?xml version="1.0" standalone="no"?>
<!DOCTYPE svg PUBLIC "-//W3C//DTD SVG 20010904//EN"
 "http://www.w3.org/TR/2001/REC-SVG-20010904/DTD/svg10.dtd">
<svg version="1.0" xmlns="http://www.w3.org/2000/svg"
 width="871.000000pt" height="1280.000000pt" viewBox="0 0 871.000000 1280.000000"
 preserveAspectRatio="xMidYMid meet">
<metadata>
Created by potrace 1.15, written by Peter Selinger 2001-2017
</metadata>
<g transform="translate(0.000000,1280.000000) scale(0.100000,-0.100000)"
fill="#000000" stroke="none">
<path d="M5840 12710 c-467 -41 -936 -281 -1235 -629 -272 -319 -436 -718
-452 -1103 -6 -125 -5 -127 19 -151 18 -18 41 -27 82 -32 70 -9 288 10 415 36
786 160 1370 826 1431 1632 19 252 0 270 -260 247z"/>
<path d="M4174 10521 c-2 -3 -19 -6 -37 -7 -90 -8 -138 -15 -162 -24 -15 -6
-31 -8 -35 -5 -5 3 -25 -1 -44 -9 -19 -8 -36 -12 -39 -10 -2 3 -17 -1 -33 -7
-16 -7 -32 -12 -36 -11 -4 1 -57 -16 -116 -37 -294 -105 -547 -265 -772 -491
-237 -236 -403 -504 -505 -814 -68 -204 -83 -294 -115 -671 -16 -196 -93 -486
-225 -855 -137 -382 -217 -530 -628 -1151 -394 -596 -548 -882 -652 -1214 -21
-66 -52 -160 -70 -210 -47 -129 -65 -291 -65 -595 0 -465 50 -787 187 -1205
306 -931 987 -1721 1867 -2161 285 -142 430 -178 721 -177 99 1 243 8 320 17
77 8 205 23 285 32 243 27 487 22 825 -17 328 -37 608 -45 745 -20 115 20 253
67 388 132 868 413 1571 1185 1896 2082 98 269 173 575 182 744 6 92 5 93 -23
122 -22 21 -43 30 -84 36 -29 3 -67 11 -84 15 -16 5 -70 14 -120 20 -49 7
-145 25 -213 41 -648 157 -1185 585 -1482 1181 -162 326 -234 634 -234 1003 0
360 69 660 223 980 93 193 221 383 369 546 106 117 122 145 122 212 0 32 -9
93 -19 135 -35 137 -50 239 -61 400 -6 86 -17 200 -26 252 -107 671 -542 1253
-1160 1550 -104 50 -317 128 -364 133 -14 2 -31 6 -37 10 -5 3 -28 9 -49 11
-21 3 -54 10 -73 15 -19 6 -38 8 -42 5 -5 -3 -28 0 -51 7 -40 11 -464 20 -474
10z"/>
</g>
</svg>
